<?xml version="1.0" encoding="utf-8"?>
<!-- Generator: Adobe Illustrator 25.1.0, SVG Export Plug-In . SVG Version: 6.00 Build 0)  -->
<svg version="1.1" id="Layer_1" xmlns="http://www.w3.org/2000/svg" xmlns:xlink="http://www.w3.org/1999/xlink" x="0px" y="0px"
	 viewBox="0 0 500 500" style="enable-background:new 0 0 500 500;" xml:space="preserve">
<style type="text/css">
	.st0{display:none;}
	.st1{display:inline;fill:none;stroke:#000000;stroke-width:6;stroke-miterlimit:10;}
	.st2{fill:none;stroke:#000000;stroke-width:4;stroke-miterlimit:10;}
</style>
<g id="Layer_1_1_" class="st0">
	<path class="st1" d="M438,265.4c0,105.6-85.6,191.3-191.3,191.3c-105.6,0-191.3-85.6-191.3-191.3S141.1,74.1,246.8,74.1
		C352.4,74.1,438,159.8,438,265.4z M150.8,380l24.2-90.2c19.2,1.3,45.4-38.6,59.8-92.2c3.9-14.6,6.5-28.8,8-41.9l-64.3-17.3
		c-5.3,12.1-10.1,25.7-14.1,40.3c-14.4,53.6-11.6,101.2,5.7,109.8l-24.2,90.2c-16.6-4.3-30.1-6.2-30.6-4.3
		c-0.5,2,13.4,7.5,31.1,12.2c17.7,4.7,32.5,7,33,5C180,389.7,167.4,384.6,150.8,380z M347.5,378.7l-24.2-90.2
		c17.3-8.6,20-56.2,5.7-109.8c-3.9-14.6-8.7-28.2-14-40.3l-64.3,17.3c1.4,13.1,4,27.3,8,41.9c14.4,53.6,40.5,93.5,59.8,92.2
		l24.2,90.2c-16.5,4.6-29.2,9.6-28.6,11.6c0.5,2,15.3-0.2,33-5c17.7-4.7,31.6-10.2,31.1-12.2C377.6,372.5,364.1,374.4,347.5,378.7z"
		/>
</g>
<g id="Layer_2_1_">
	<path class="st2" d="M455.9,257.7c0,109.6-88.8,198.4-198.4,198.4c-109.6,0-198.4-88.8-198.4-198.4S148,59.3,257.5,59.3
		C367.1,59.3,455.9,148.1,455.9,257.7z"/>
	<path d="M420.7,254.2c0,0-34.4,73.7-163.2,74C129.4,328,97,257.7,97,257.7s39.7-35.1,96.4-62.2c12.1-6.2,37.9-11.7,67.4,15.3
		c29.5-27,48.8-20.8,60.8-15.3C378.5,222.7,420.7,254.2,420.7,254.2z M326.5,258.8c-82.1-30.1-137.1,7.2-131.4,0
		c13.7,6.2,34.2,8.5,65.5,8.7C292,267.4,313,264.9,326.5,258.8z"/>
</g>
</svg>
