<?xml version="1.0" encoding="utf-8"?>
<!-- Generator: Adobe Illustrator 25.1.0, SVG Export Plug-In . SVG Version: 6.00 Build 0)  -->
<svg version="1.1" id="Layer_1" xmlns="http://www.w3.org/2000/svg" xmlns:xlink="http://www.w3.org/1999/xlink" x="0px" y="0px"
	 viewBox="0 0 500 500" style="enable-background:new 0 0 500 500;" xml:space="preserve">
<style type="text/css">
	.st0{fill:#231F20;}
</style>
<path class="st0" d="M438.03,265.4c0,105.64-85.64,191.27-191.28,191.27c-105.63,0-191.27-85.63-191.27-191.27
	c0-105.64,85.64-191.28,191.27-191.28C352.38,74.12,438.03,159.75,438.03,265.4z M150.83,380.04l24.19-90.22
	c19.25,1.3,45.43-38.65,59.8-92.22c3.92-14.62,6.53-28.82,7.97-41.9l-64.34-17.26c-5.3,12.07-10.12,25.66-14.05,40.31
	c-14.35,53.55-11.63,101.21,5.71,109.78l-24.21,90.2c-16.59-4.32-30.06-6.23-30.58-4.34c-0.53,2,13.38,7.48,31.1,12.24
	c17.72,4.73,32.52,6.96,33.03,4.96C179.98,389.68,167.37,384.63,150.83,380.04z M347.55,378.74l-24.17-90.2
	c17.32-8.57,20.05-56.24,5.67-109.78c-3.92-14.64-8.72-28.24-14.03-40.31l-64.34,17.26c1.43,13.08,4.04,27.27,7.97,41.9
	c14.36,53.57,40.53,93.51,59.82,92.22l24.18,90.22c-16.54,4.59-29.16,9.64-28.64,11.57c0.5,2,15.31-0.23,33.03-4.98
	c17.68-4.74,31.63-10.22,31.09-12.22C377.63,372.51,364.14,374.42,347.55,378.74z"/>
</svg>
