<?xml version="1.0" encoding="utf-8"?>
<!-- Generator: Adobe Illustrator 25.1.0, SVG Export Plug-In . SVG Version: 6.00 Build 0)  -->
<svg version="1.1" id="Layer_1" xmlns="http://www.w3.org/2000/svg" xmlns:xlink="http://www.w3.org/1999/xlink" x="0px" y="0px"
	 viewBox="0 0 500 500" style="enable-background:new 0 0 500 500;" xml:space="preserve">
<style type="text/css">
	.st0{display:none;}
	.st1{display:inline;fill:none;stroke:#000000;stroke-width:6;stroke-miterlimit:10;}
	.st2{fill:none;stroke:#000000;stroke-width:4;stroke-miterlimit:10;}
	.st3{stroke:#000000;stroke-width:4;stroke-miterlimit:10;}
</style>
<g id="Layer_1_1_" class="st0">
	<path class="st1" d="M438,265.4c0,105.6-85.6,191.3-191.3,191.3c-105.6,0-191.3-85.6-191.3-191.3S141.1,74.1,246.8,74.1
		C352.4,74.1,438,159.8,438,265.4z M150.8,380l24.2-90.2c19.2,1.3,45.4-38.6,59.8-92.2c3.9-14.6,6.5-28.8,8-41.9l-64.3-17.3
		c-5.3,12.1-10.1,25.7-14.1,40.3c-14.4,53.6-11.6,101.2,5.7,109.8l-24.2,90.2c-16.6-4.3-30.1-6.2-30.6-4.3
		c-0.5,2,13.4,7.5,31.1,12.2c17.7,4.7,32.5,7,33,5C180,389.7,167.4,384.6,150.8,380z M347.5,378.7l-24.2-90.2
		c17.3-8.6,20-56.2,5.7-109.8c-3.9-14.6-8.7-28.2-14-40.3l-64.3,17.3c1.4,13.1,4,27.3,8,41.9c14.4,53.6,40.5,93.5,59.8,92.2
		l24.2,90.2c-16.5,4.6-29.2,9.6-28.6,11.6c0.5,2,15.3-0.2,33-5c17.7-4.7,31.6-10.2,31.1-12.2C377.6,372.5,364.1,374.4,347.5,378.7z"
		/>
</g>
<g id="Layer_2_1_">
	<path class="st2" d="M246.8,69.8c-108,0-195.6,87.5-195.6,195.6c0,108,87.6,195.6,195.6,195.6c108,0,195.6-87.6,195.6-195.6
		S354.8,69.8,246.8,69.8z M357,308.6c-21.3,6.5-53.1,9.3-80.5-1.7c-14.2-5.7-23.8-13.6-29.8-22.3c-6,8.8-15.6,16.7-29.8,22.3
		c-27.4,11-59.2,8.2-80.5,1.7c-20-6.1-34.9-17.6-42.3-38.7c-8.2-23.5,3.9-48.4,24.8-49.6c-7.5,15.3-0.3,29,14,31.1
		c16.7,2.4,26.4-10,42.1-20.2c22-14.3,38.1-20.3,59.6-8.5c4.7,2.6,8.8,6.5,12.1,11.1c3.3-4.7,7.4-8.5,12.1-11.1
		c21.5-11.8,37.6-5.8,59.6,8.5c15.7,10.2,25.4,22.6,42.2,20.2c14.3-2.1,21.5-15.8,14-31.1c20.9,1.2,33,26.1,24.8,49.6
		C392,291,377,302.6,357,308.6z"/>
	<path class="st3" d="M399.3,270C392,291,377,302.6,357,308.6c-21.3,6.5-53.1,9.3-80.5-1.7c-14.2-5.7-23.8-13.6-29.8-22.3
		c-6,8.8-15.6,16.7-29.8,22.3c-27.4,11-59.2,8.2-80.5,1.7c-20-6.1-34.9-17.6-42.3-38.7c-8.2-23.5,3.9-48.4,24.8-49.6
		c-7.5,15.3-0.3,29,14,31.1c16.7,2.4,26.4-10,42.1-20.2c22-14.3,38.1-20.3,59.6-8.5c4.7,2.6,8.8,6.5,12.1,11.1
		c3.3-4.7,7.4-8.5,12.1-11.1c21.5-11.8,37.6-5.8,59.6,8.5c15.7,10.2,25.4,22.6,42.2,20.2c14.3-2.1,21.5-15.8,14-31.1
		C395.4,221.5,407.5,246.5,399.3,270z"/>
</g>
</svg>
