<?xml version="1.0" encoding="utf-8"?>
<!-- Generator: Adobe Illustrator 16.0.0, SVG Export Plug-In . SVG Version: 6.00 Build 0)  -->
<!DOCTYPE svg PUBLIC "-//W3C//DTD SVG 1.1//EN" "http://www.w3.org/Graphics/SVG/1.1/DTD/svg11.dtd">
<svg version="1.1" id="Layer_1" xmlns="http://www.w3.org/2000/svg" xmlns:xlink="http://www.w3.org/1999/xlink" x="0px" y="0px"
	 width="120px" height="120px" viewBox="0 0 120 120" enable-background="new 0 0 120 120" xml:space="preserve">
<g>
	<circle fill="#37BA85" cx="60" cy="60" r="53.908"/>
	<g>
		<path fill-rule="evenodd" clip-rule="evenodd" fill="#FFFFFF" stroke="#37BA85" stroke-width="0.5" stroke-miterlimit="10" d="
			M52.453,87.323c2.461,0.769,5.011,1.158,7.579,1.158c8.359,0,16.265-4.193,21.146-11.218c5.902-8.497,6.799-22.344-2.911-32.367
			l-0.444-0.461l2.89-2.931l0.824,0.752c0.249,0.234,0.504,0.477,0.785,0.689c0.527,0.4,1.354,0.307,1.814-0.19
			c0.441-0.478,0.487-1.35,0.091-1.762c-1.744-1.814-3.393-3.463-5.037-5.04c-0.513-0.492-1.284-0.448-1.834,0.073
			c-0.553,0.521-0.594,1.23-0.11,1.854c0.208,0.266,0.442,0.513,0.676,0.762l0.765,0.834l-3.149,3.027l-0.444-0.325
			c-3.756-2.748-8.42-4.363-13.263-4.8l-0.904-0.055V34.28l3.812,0.012c0.598,0,1.342-0.004,1.935-0.021
			c0.359-0.01,0.749-0.146,0.982-0.395c0.257-0.273,0.427-0.652,0.412-1.068c-0.026-0.722-0.598-1.275-1.356-1.288l-0.357-0.002
			l-13.233,0.004c-0.451,0.001-0.836,0.17-1.088,0.477c-0.258,0.313-0.351,0.739-0.262,1.198c0.13,0.673,0.627,1.078,1.329,1.083
			c0.692,0.007,1.383,0.089,2.075,0.089l2.791,0.074h0.335v2.881l-0.433,0.057c-6.541,0.623-12.008,3.265-16.407,7.853
			c-4.452,4.651-6.797,10.293-7.043,16.768C33.982,73.468,41.423,83.882,52.453,87.323z M59.995,39.693h0.259
			c6.13,0,11.847,2.708,16.098,7.059c4.252,4.351,6.553,10.23,6.479,16.364c-0.151,12.416-10.383,22.568-22.807,22.568l-0.439,0.022
			C47.019,85.47,37.181,75.176,37.188,62.523C37.382,49.827,47.399,39.693,59.995,39.693z"/>
		<path fill-rule="evenodd" clip-rule="evenodd" fill="#FFFFFF" stroke="#37BA85" stroke-width="0.5" stroke-miterlimit="10" d="
			M58.649,49.765c-0.021,4.281-0.023,8.562-0.013,12.843c0.004,0.74,0.568,1.302,1.313,1.303c2.998,0.014,5.992,0.013,8.985-0.004
			c0.447-0.004,0.796-0.199,1.036-0.577c0.3-0.476,0.343-1.022,0.112-1.465c-0.22-0.42-0.647-0.676-1.176-0.701
			c-0.805-0.038-7.497-0.059-7.497-0.059l-0.004-4.777c-0.001-2.254-0.003-4.397-0.017-6.651c-0.005-0.8-0.53-1.25-1.371-1.257
			C59.207,48.419,58.653,49.004,58.649,49.765z"/>
	</g>
</g>
</svg>
