<?xml version="1.0" encoding="utf-8"?>
<!-- Generator: Adobe Illustrator 16.0.0, SVG Export Plug-In . SVG Version: 6.00 Build 0)  -->
<!DOCTYPE svg PUBLIC "-//W3C//DTD SVG 1.1//EN" "http://www.w3.org/Graphics/SVG/1.1/DTD/svg11.dtd">
<svg version="1.1" id="Layer_1" xmlns="http://www.w3.org/2000/svg" xmlns:xlink="http://www.w3.org/1999/xlink" x="0px" y="0px"
	 width="120px" height="120px" viewBox="0 0 120 120" enable-background="new 0 0 120 120" xml:space="preserve">
<g>
	<circle fill="#37BA85" cx="60" cy="60" r="53.908"/>
	<g>
		<path fill="#FFFFFF" stroke="#37BA85" stroke-width="0.8422" stroke-miterlimit="10" d="M91.542,39.918l-20.005-5.902V31.76
			c0-0.448-0.222-0.867-0.592-1.118c-0.369-0.252-0.84-0.305-1.257-0.14c0,0-7.853,3.102-7.909,3.133
			c-0.546-0.231-1.147-0.36-1.78-0.36c-0.631,0-1.232,0.128-1.778,0.36c-0.055-0.032-7.909-3.133-7.909-3.133
			c-0.417-0.166-0.888-0.113-1.257,0.14c-0.37,0.251-0.591,0.67-0.591,1.118v2.3L28.46,39.918c-0.718,0.209-1.128,0.958-0.92,1.678
			c0.211,0.716,0.961,1.128,1.679,0.917l6.318-1.849l7.987,19.414l-4.166,3.09c-0.292,0.217-0.485,0.545-0.533,0.905
			c-0.049,0.361,0.051,0.726,0.276,1.013l19.545,24.967v5.465c0,0.749,0.604,1.354,1.353,1.354c0.745,0,1.351-0.605,1.351-1.354
			v-5.465l19.546-24.967c0.226-0.287,0.324-0.651,0.276-1.013c-0.05-0.36-0.241-0.688-0.535-0.905l-4.163-3.09l7.985-19.414
			l6.319,1.849c0.716,0.209,1.469-0.201,1.677-0.917C92.669,40.876,92.259,40.127,91.542,39.918z M64.012,35.645l4.822-1.898v8.224
			l-4.822-1.899c0.363-0.658,0.571-1.412,0.571-2.213C64.583,37.056,64.375,36.302,64.012,35.645z M60,35.979
			c1.036,0,1.877,0.842,1.877,1.878S61.036,39.734,60,39.734c-1.035,0-1.876-0.841-1.876-1.877S58.965,35.979,60,35.979z
			 M51.168,33.746l4.819,1.898c-0.362,0.657-0.569,1.411-0.569,2.213c0,0.801,0.208,1.555,0.569,2.213l-4.819,1.899V33.746z
			 M42.085,64.513l3.895-2.891c0.498-0.368,0.682-1.028,0.447-1.601L38.149,39.9l8.827-2.582l10.405,46.73L42.085,64.513z
			 M60.001,83.365l-8.593-38.582l6.64-2.618c0.061-0.024,0.12-0.052,0.174-0.086c0.546,0.232,1.147,0.359,1.778,0.359
			c0.633,0,1.234-0.127,1.78-0.359c0.056,0.034,0.114,0.062,0.174,0.086l6.639,2.618L60.001,83.365z M73.576,60.021
			c-0.236,0.572-0.052,1.232,0.443,1.601l3.897,2.891L62.62,84.049l8.813-39.576l0.101-0.45l1.491-6.704l8.829,2.582L73.576,60.021z
			"/>
	</g>
</g>
</svg>
