<?xml version="1.0" encoding="utf-8"?>
<!-- Generator: Adobe Illustrator 16.0.0, SVG Export Plug-In . SVG Version: 6.00 Build 0)  -->
<!DOCTYPE svg PUBLIC "-//W3C//DTD SVG 1.1//EN" "http://www.w3.org/Graphics/SVG/1.1/DTD/svg11.dtd">
<svg version="1.1" id="Layer_1" xmlns="http://www.w3.org/2000/svg" xmlns:xlink="http://www.w3.org/1999/xlink" x="0px" y="0px"
	 width="120px" height="120px" viewBox="0 0 120 120" enable-background="new 0 0 120 120" xml:space="preserve">
<g>
	<circle fill="#37BA85" cx="60" cy="60" r="53.909"/>
	<g>
		<g>
			<path fill="#FFFFFF" stroke="#37BA85" stroke-width="0.1965" stroke-miterlimit="10" d="M84.4,47.481h-8.25l-3.871-9.678H47.74
				l-3.871,9.678h-1.28v-4.839h-5.808v4.839h-1.162c-2.563,0-4.646,2.083-4.646,4.644v28.424c0,2.58,2.099,4.678,4.679,4.678h48.715
				c2.58,0,4.678-2.099,4.678-4.678V52.125C89.044,49.564,86.961,47.481,84.4,47.481L84.4,47.481z M38.716,44.578h1.936v2.904
				h-1.936V44.578z M87.109,80.549c0,1.513-1.23,2.742-2.742,2.742H35.652c-1.513,0-2.742-1.23-2.742-2.742V52.125
				c0-1.493,1.215-2.708,2.709-2.708h9.561l3.871-9.678h21.917l3.872,9.678H84.4c1.493,0,2.709,1.216,2.709,2.708V80.549z
				 M87.109,80.549"/>
			<path fill="#FFFFFF" stroke="#37BA85" stroke-width="0.1965" stroke-miterlimit="10" d="M60.009,46.514
				c-9.605,0-17.421,7.815-17.421,17.421c0,9.605,7.815,17.42,17.421,17.42s17.421-7.815,17.421-17.42
				C77.43,54.329,69.615,46.514,60.009,46.514L60.009,46.514z M60.009,79.42c-8.538,0-15.486-6.948-15.486-15.485
				c0-8.539,6.948-15.486,15.486-15.486s15.485,6.947,15.485,15.486C75.495,72.472,68.547,79.42,60.009,79.42L60.009,79.42z
				 M60.009,79.42"/>
			<path fill="#FFFFFF" stroke="#37BA85" stroke-width="0.1965" stroke-miterlimit="10" d="M60.009,52.32
				c-6.404,0-11.615,5.21-11.615,11.615c0,6.404,5.211,11.614,11.615,11.614c6.403,0,11.613-5.209,11.613-11.614
				C71.623,57.53,66.413,52.32,60.009,52.32L60.009,52.32z M60.009,73.613c-5.337,0-9.679-4.341-9.679-9.678
				c0-5.337,4.342-9.678,9.679-9.678c5.336,0,9.678,4.341,9.678,9.678C69.687,69.271,65.345,73.613,60.009,73.613L60.009,73.613z
				 M60.009,73.613"/>
			<path fill="#FFFFFF" stroke="#37BA85" stroke-width="0.1965" stroke-miterlimit="10" d="M81.302,51.354
				c-2.136,0-3.872,1.736-3.872,3.87c0,2.136,1.736,3.873,3.872,3.873c2.135,0,3.871-1.737,3.871-3.873
				C85.173,53.089,83.437,51.354,81.302,51.354L81.302,51.354z M81.302,57.161c-1.068,0-1.937-0.868-1.937-1.937
				c0-1.066,0.868-1.935,1.937-1.935c1.066,0,1.936,0.869,1.936,1.935C83.238,56.292,82.369,57.161,81.302,57.161L81.302,57.161z
				 M81.302,57.161"/>
		</g>
	</g>
</g>
</svg>
