<?xml version="1.0" encoding="utf-8"?>
<!-- Generator: Adobe Illustrator 16.0.0, SVG Export Plug-In . SVG Version: 6.00 Build 0)  -->
<!DOCTYPE svg PUBLIC "-//W3C//DTD SVG 1.1//EN" "http://www.w3.org/Graphics/SVG/1.1/DTD/svg11.dtd">
<svg version="1.1" id="Layer_1" xmlns="http://www.w3.org/2000/svg" xmlns:xlink="http://www.w3.org/1999/xlink" x="0px" y="0px"
	 width="120px" height="120px" viewBox="0 0 120 120" enable-background="new 0 0 120 120" xml:space="preserve">
<g>
	<circle fill="#37BA85" cx="60" cy="60" r="53.909"/>
	<g>
		<g>
			<path fill="#FFFFFF" stroke="#37BA85" stroke-width="0.393" stroke-miterlimit="10" d="M39.232,49.509
				c-0.594,0-1.069-0.476-1.069-1.068v-9.665c0-0.591,0.476-1.067,1.069-1.067c0.597,0,1.073,0.477,1.073,1.067v9.665
				C40.305,49.033,39.829,49.509,39.232,49.509L39.232,49.509z M39.232,49.509"/>
			<path fill="#FFFFFF" stroke="#37BA85" stroke-width="0.393" stroke-miterlimit="10" d="M42.858,49.509
				c-0.597,0-1.074-0.476-1.074-1.068V37.976c0-0.594,0.478-1.074,1.074-1.074c0.591,0,1.07,0.48,1.07,1.074v10.465
				C43.928,49.033,43.449,49.509,42.858,49.509L42.858,49.509z M42.858,49.509"/>
			<path fill="#FFFFFF" stroke="#37BA85" stroke-width="0.393" stroke-miterlimit="10" d="M46.479,49.509
				c-0.592,0-1.075-0.476-1.075-1.068V37.976c0-0.594,0.483-1.074,1.075-1.074c0.593,0,1.075,0.48,1.075,1.074v10.465
				C47.554,49.033,47.072,49.509,46.479,49.509L46.479,49.509z M46.479,49.509"/>
			<path fill="#FFFFFF" stroke="#37BA85" stroke-width="0.393" stroke-miterlimit="10" d="M73.264,87.074H46.035
				c-8.129,0-12.793-4.275-12.793-11.739V48.571c0-7.783,4.58-13.012,11.404-13.012h29.603c5.059,0,10.508,4.858,10.508,12.704
				v26.919C84.756,81.85,79.71,87.074,73.264,87.074L73.264,87.074z M44.646,37.708c-6.836,0-9.255,5.854-9.255,10.863V75.34
				c0,7.925,5.784,9.592,10.644,9.592h27.229c5.33,0,9.351-4.193,9.351-9.75V48.263c0-6.521-4.342-10.555-8.366-10.555H44.646z
				 M44.646,37.708"/>
			<path fill="#FFFFFF" stroke="#37BA85" stroke-width="0.393" stroke-miterlimit="10" d="M59,51.924
				c-4.545,0-8.229,3.685-8.229,8.235c0,4.543,3.684,8.227,8.229,8.227c4.543,0,8.228-3.684,8.228-8.227
				C67.227,55.609,63.542,51.924,59,51.924L59,51.924z M59,64.266c-2.274,0-4.114-1.839-4.114-4.112c0-2.271,1.84-4.114,4.114-4.114
				s4.114,1.844,4.114,4.114C63.114,62.427,61.274,64.266,59,64.266L59,64.266z M59,64.266"/>
			<path fill="#FFFFFF" stroke="#37BA85" stroke-width="0.393" stroke-miterlimit="10" d="M59,73.212
				c-7.201,0-13.061-5.859-13.061-13.058c0-7.202,5.859-13.055,13.061-13.055c7.199,0,13.06,5.854,13.06,13.055
				C72.059,67.353,66.199,73.212,59,73.212L59,73.212z M59,49.242c-6.017,0-10.912,4.896-10.912,10.913
				c0,6.02,4.896,10.916,10.912,10.916c6.016,0,10.911-4.896,10.911-10.916C69.911,54.137,65.015,49.242,59,49.242L59,49.242z
				 M59,49.242"/>
			
				<rect x="68.657" y="51.574" fill="#FFFFFF" stroke="#37BA85" stroke-width="0.393" stroke-miterlimit="10" width="15.024" height="2.318"/>
			
				<rect x="34.851" y="51.606" fill="#FFFFFF" stroke="#37BA85" stroke-width="0.393" stroke-miterlimit="10" width="14.223" height="2.254"/>
			<path fill="#FFFFFF" stroke="#37BA85" stroke-width="0.393" stroke-miterlimit="10" d="M77.603,46.433
				c0,1.304-1.06,2.364-2.363,2.364h-3.502c-1.304,0-2.361-1.06-2.361-2.364v-3.506c0-1.3,1.058-2.358,2.361-2.358h3.502
				c1.304,0,2.363,1.058,2.363,2.358V46.433z M77.603,46.433"/>
		</g>
	</g>
</g>
</svg>
