<?xml version="1.0" encoding="utf-8"?>
<!-- Generator: Adobe Illustrator 16.0.0, SVG Export Plug-In . SVG Version: 6.00 Build 0)  -->
<!DOCTYPE svg PUBLIC "-//W3C//DTD SVG 1.1//EN" "http://www.w3.org/Graphics/SVG/1.1/DTD/svg11.dtd">
<svg version="1.1" id="Layer_1" xmlns="http://www.w3.org/2000/svg" xmlns:xlink="http://www.w3.org/1999/xlink" x="0px" y="0px"
	 width="120px" height="120px" viewBox="0 0 120 120" enable-background="new 0 0 120 120" xml:space="preserve">
<g>
	<circle fill="#37BA85" cx="60" cy="60" r="53.909"/>
	<g>
		<g>
			<path fill="#FFFFFF" stroke="#37BA85" stroke-width="0.393" stroke-miterlimit="10" d="M89.582,32.737
				c-0.318-0.192-0.713-0.201-1.04-0.029l-17.485,9.257l-17.484-9.257c-0.013-0.007-0.029-0.01-0.043-0.015
				c-0.05-0.025-0.102-0.042-0.155-0.059c-0.029-0.008-0.058-0.018-0.087-0.024c-0.059-0.011-0.119-0.015-0.178-0.018
				c-0.027-0.001-0.053-0.004-0.081-0.003c-0.057,0.003-0.113,0.014-0.169,0.027c-0.032,0.006-0.063,0.01-0.094,0.02
				c-0.008,0.002-0.015,0.002-0.021,0.004l-19.037,6.345c-0.433,0.144-0.723,0.548-0.723,1.003v45.475
				c0,0.34,0.163,0.659,0.439,0.859c0.182,0.129,0.399,0.199,0.618,0.199c0.113,0,0.225-0.018,0.334-0.055l18.663-6.221L70.654,87.5
				c0.014,0.005,0.032,0.004,0.046,0.009c0.116,0.041,0.235,0.069,0.356,0.069c0.096,0,0.19-0.015,0.282-0.041
				c0.029-0.009,0.057-0.022,0.086-0.033c0.042-0.016,0.087-0.027,0.127-0.048l17.979-9.518c0.346-0.183,0.563-0.543,0.563-0.935
				v-43.36C90.093,33.272,89.898,32.929,89.582,32.737L89.582,32.737z M35.1,40.751l16.921-5.64v28.547
				c-0.455,0.082-0.903,0.175-1.336,0.29c-0.565,0.15-0.901,0.728-0.751,1.293c0.126,0.473,0.553,0.786,1.021,0.786
				c0.089,0,0.181-0.011,0.272-0.035c0.254-0.067,0.531-0.101,0.794-0.156v12.521L35.1,83.996V40.751z M54.136,65.54
				c0.339-0.025,0.668-0.07,1.017-0.078c0.583-0.012,1.047-0.495,1.035-1.08c-0.013-0.576-0.483-1.035-1.058-1.035h-0.022
				c-0.328,0.008-0.65,0.025-0.971,0.047V35.4L70,43.798v22.414c-0.755-0.033-1.523-0.122-2.328-0.277
				c-0.575-0.113-1.129,0.264-1.24,0.836c-0.11,0.574,0.265,1.129,0.837,1.24c0.938,0.182,1.847,0.271,2.731,0.306v16.626
				L54.136,78.41V65.54z M87.979,76.366l-15.864,8.398V68.203c0.394-0.179,0.656-0.58,0.621-1.036
				c-0.031-0.396-0.285-0.713-0.621-0.869v-22.5L87.979,35.4V76.366z M87.979,76.366"/>
			<path fill="#FFFFFF" stroke="#37BA85" stroke-width="0.393" stroke-miterlimit="10" d="M44.618,41.046
				c-2.916,0-5.288,2.372-5.288,5.288c0,2.554,1.82,4.689,4.23,5.181v2.222c0,0.584,0.474,1.057,1.058,1.057
				c0.583,0,1.058-0.473,1.058-1.057v-2.222c2.41-0.492,4.23-2.627,4.23-5.181C49.906,43.418,47.534,41.046,44.618,41.046
				L44.618,41.046z M44.618,49.507c-1.75,0-3.173-1.423-3.173-3.172c0-1.75,1.424-3.174,3.173-3.174
				c1.749,0,3.172,1.424,3.172,3.174C47.79,48.083,46.367,49.507,44.618,49.507L44.618,49.507z M44.618,49.507"/>
			<path fill="#FFFFFF" stroke="#37BA85" stroke-width="0.393" stroke-miterlimit="10" d="M80.649,60.793
				c0.127,0.05,0.257,0.073,0.385,0.073c0.423,0,0.821-0.255,0.986-0.672c0.497-1.269,0.896-2.7,1.187-4.256
				c0.108-0.573-0.271-1.125-0.845-1.233c-0.577-0.096-1.126,0.271-1.235,0.845c-0.266,1.426-0.628,2.729-1.077,3.875
				C79.838,59.966,80.105,60.581,80.649,60.793L80.649,60.793z M80.649,60.793"/>
			<path fill="#FFFFFF" stroke="#37BA85" stroke-width="0.393" stroke-miterlimit="10" d="M46.527,65.732
				c-1.277,0.8-2.427,1.803-3.421,2.982c-0.376,0.446-0.319,1.114,0.127,1.49c0.199,0.167,0.441,0.249,0.681,0.249
				c0.301,0,0.6-0.128,0.809-0.375c0.853-1.011,1.837-1.872,2.928-2.553c0.494-0.311,0.644-0.964,0.334-1.458
				C47.674,65.571,47.021,65.421,46.527,65.732L46.527,65.732z M46.527,65.732"/>
			<path fill="#FFFFFF" stroke="#37BA85" stroke-width="0.393" stroke-miterlimit="10" d="M42.108,72.008
				c-0.531-0.243-1.158-0.014-1.403,0.517c-1.085,2.354-1.354,4.255-1.365,4.335c-0.079,0.578,0.324,1.111,0.903,1.19
				c0.048,0.007,0.098,0.01,0.146,0.01c0.52,0,0.972-0.383,1.047-0.911c0.002-0.017,0.245-1.689,1.19-3.737
				C42.869,72.88,42.638,72.253,42.108,72.008L42.108,72.008z M42.108,72.008"/>
			<path fill="#FFFFFF" stroke="#37BA85" stroke-width="0.393" stroke-miterlimit="10" d="M75.735,67.199
				c0.162,0,0.327-0.037,0.479-0.115c1.367-0.699,2.571-1.691,3.579-2.946c0.366-0.457,0.292-1.123-0.163-1.487
				c-0.455-0.363-1.121-0.292-1.487,0.163c-0.821,1.022-1.793,1.825-2.892,2.387c-0.521,0.267-0.727,0.903-0.46,1.423
				C74.979,66.989,75.351,67.199,75.735,67.199L75.735,67.199z M75.735,67.199"/>
			<path fill="#FFFFFF" stroke="#37BA85" stroke-width="0.393" stroke-miterlimit="10" d="M63.834,64.77
				c-0.466-0.195-0.74-0.331-0.758-0.341c-0.068-0.035-0.142-0.063-0.217-0.082c-1.146-0.294-2.273-0.527-3.355-0.692
				c-0.576-0.091-1.117,0.308-1.206,0.885c-0.086,0.579,0.31,1.119,0.887,1.207c0.979,0.15,2.001,0.359,3.042,0.624
				c0.142,0.068,0.413,0.196,0.792,0.354c0.133,0.056,0.271,0.082,0.407,0.082c0.413,0,0.807-0.244,0.976-0.65
				C64.627,65.613,64.373,64.994,63.834,64.77L63.834,64.77z M63.834,64.77"/>
			<path fill="#FFFFFF" stroke="#37BA85" stroke-width="0.393" stroke-miterlimit="10" d="M82.608,52.607
				c0.024,0.001,0.046,0.002,0.069,0.002c0.553,0,1.019-0.43,1.055-0.992c0.066-1.016,0.098-2.092,0.098-3.194
				c0-0.367-0.003-0.738-0.01-1.119c-0.011-0.584-0.519-1.029-1.077-1.038c-0.584,0.01-1.049,0.493-1.039,1.077
				c0.007,0.367,0.011,0.727,0.011,1.081c0,1.058-0.032,2.086-0.094,3.06C81.584,52.065,82.026,52.568,82.608,52.607L82.608,52.607z
				 M82.608,52.607"/>
			<path fill="#FFFFFF" stroke="#37BA85" stroke-width="0.393" stroke-miterlimit="10" d="M41.754,61.888
				c0.207,0.207,0.477,0.31,0.748,0.31s0.542-0.103,0.748-0.31l1.368-1.367l1.368,1.367c0.206,0.207,0.477,0.31,0.747,0.31
				c0.271,0,0.542-0.103,0.749-0.31c0.414-0.414,0.414-1.082,0-1.495l-1.367-1.367l1.367-1.368c0.414-0.414,0.414-1.083,0-1.496
				c-0.414-0.413-1.083-0.413-1.495,0l-1.368,1.367l-1.368-1.367c-0.414-0.413-1.082-0.413-1.496,0
				c-0.413,0.413-0.413,1.082,0,1.496l1.368,1.368l-1.368,1.367C41.342,60.805,41.342,61.474,41.754,61.888L41.754,61.888z
				 M41.754,61.888"/>
		</g>
	</g>
</g>
</svg>
