<?xml version="1.0" encoding="utf-8"?>
<!-- Generator: Adobe Illustrator 16.0.0, SVG Export Plug-In . SVG Version: 6.00 Build 0)  -->
<!DOCTYPE svg PUBLIC "-//W3C//DTD SVG 1.1//EN" "http://www.w3.org/Graphics/SVG/1.1/DTD/svg11.dtd">
<svg version="1.1" id="Layer_1" xmlns="http://www.w3.org/2000/svg" xmlns:xlink="http://www.w3.org/1999/xlink" x="0px" y="0px"
	 width="120px" height="120px" viewBox="0 0 120 120" enable-background="new 0 0 120 120" xml:space="preserve">
<g>
	<circle fill="#37BA85" cx="60" cy="60" r="53.908"/>
	<g>
		<g>
			<path fill="#FFFFFF" d="M79.301,33.455c-0.223-0.195-0.518-0.284-0.813-0.249l-32.012,4.142c-0.516,0.067-0.9,0.503-0.9,1.023
				v36.774c-1.885-2.266-4.879-3.741-8.26-3.741c-5.693,0-10.326,4.169-10.326,9.294c0,5.125,4.633,9.293,10.326,9.293
				s10.326-4.168,10.326-9.293c0-0.24-0.021-0.475-0.041-0.71c0.014-0.066,0.041-0.127,0.041-0.198V49.842l29.945-3.875v18.852
				c-1.885-2.266-4.881-3.741-8.262-3.741C63.633,61.078,59,65.247,59,70.373c0,5.125,4.633,9.293,10.326,9.293
				c5.643,0,10.238-4.095,10.32-9.156c0-0.014,0.008-0.025,0.008-0.038V34.23C79.654,33.933,79.525,33.651,79.301,33.455
				L79.301,33.455z M37.316,87.926c-4.557,0-8.262-3.243-8.262-7.228s3.705-7.229,8.262-7.229c4.555,0,8.26,3.244,8.26,7.229
				S41.871,87.926,37.316,87.926L37.316,87.926z M69.326,77.6c-4.555,0-8.26-3.243-8.26-7.228c0-3.985,3.705-7.229,8.26-7.229
				s8.262,3.244,8.262,7.229C77.588,74.357,73.881,77.6,69.326,77.6L69.326,77.6z M47.643,47.758v-8.479l29.945-3.874v8.478
				L47.643,47.758z M47.643,47.758"/>
		</g>
	</g>
</g>
</svg>
