<?xml version="1.0" encoding="utf-8"?>
<!-- Generator: Adobe Illustrator 16.0.0, SVG Export Plug-In . SVG Version: 6.00 Build 0)  -->
<!DOCTYPE svg PUBLIC "-//W3C//DTD SVG 1.1//EN" "http://www.w3.org/Graphics/SVG/1.1/DTD/svg11.dtd">
<svg version="1.1" id="Layer_1" xmlns="http://www.w3.org/2000/svg" xmlns:xlink="http://www.w3.org/1999/xlink" x="0px" y="0px"
	 width="120px" height="120px" viewBox="0 0 120 120" enable-background="new 0 0 120 120" xml:space="preserve">
<g>
	<circle fill="#37BA85" cx="60" cy="60" r="53.909"/>
	<g>
		<g>
			<path fill="#FFFFFF" stroke="#37BA85" stroke-width="0.6987" stroke-miterlimit="10" d="M82.005,45.05h-9.83
				c0.83-0.304,1.547-0.623,2.081-0.933c3.335-1.927,4.479-6.192,2.554-9.529c-1.293-2.238-3.637-3.488-6.048-3.488
				c-1.183,0-2.382,0.301-3.48,0.936c-2.084,1.204-5.668,4.679-7.597,7.933c-1.929-3.253-5.514-6.729-7.596-7.933
				c-1.099-0.635-2.298-0.936-3.482-0.936c-2.411,0-4.756,1.25-6.047,3.488c-1.927,3.336-0.784,7.602,2.553,9.529
				c0.535,0.308,1.251,0.627,2.08,0.933h-9.829c-1.542,0-2.789,1.25-2.789,2.791v8.371c0,1.541,1.247,2.79,2.789,2.79v25.111
				c0,1.541,1.249,2.79,2.79,2.79h39.062c1.541,0,2.79-1.249,2.79-2.79V59.001c1.542,0,2.79-1.249,2.79-2.79V47.84
				C84.795,46.3,83.547,45.05,82.005,45.05L82.005,45.05z M68.676,34.452c0.637-0.368,1.358-0.562,2.086-0.562
				c1.495,0,2.886,0.803,3.631,2.094c1.154,1.999,0.467,4.563-1.531,5.717c-1.582,0.914-6.054,2.24-9.458,2.24
				c-1.274,0-1.972-0.192-2.258-0.323C61.178,41.718,65.693,36.175,68.676,34.452L68.676,34.452z M51.314,84.112h-11.16V59.001
				h11.16V84.112z M51.314,56.211h-13.95V47.84h13.95V56.211z M46.507,41.701c-1.997-1.154-2.685-3.718-1.531-5.717
				c0.745-1.291,2.138-2.094,3.632-2.094c0.729,0,1.449,0.194,2.086,0.562c2.981,1.723,7.497,7.266,7.529,9.166
				c-0.286,0.13-0.983,0.322-2.259,0.322C52.561,43.941,48.09,42.614,46.507,41.701L46.507,41.701z M65.266,84.112H54.104V47.84
				h11.162V84.112z M79.215,84.112h-11.16V59.001h11.16V84.112z M82.005,56.211h-13.95V47.84h13.95V56.211z M82.005,56.211"/>
		</g>
	</g>
</g>
</svg>
